<?xml version="1.0" encoding="utf-8"?>
<!-- Generator: Adobe Illustrator 28.0.0, SVG Export Plug-In . SVG Version: 6.00 Build 0)  -->
<svg version="1.1" id="레이어_1" xmlns="http://www.w3.org/2000/svg" xmlns:xlink="http://www.w3.org/1999/xlink" x="0px"
	 y="0px" viewBox="0 0 232.6 143.23" enable-background="new 0 0 232.6 143.23" xml:space="preserve">
<g>
	<g>
		<path fill="#E9E9E7" d="M208.61,3.09h-92.25v137.5h92.25c11.84,0,21.44-8.53,21.44-19.04V22.13
			C230.05,11.62,220.45,3.09,208.61,3.09z"/>
		<path fill="#FFFFFF" d="M24.11,3.09c-11.84,0-21.44,8.53-21.44,19.04v99.43c0,10.51,9.6,19.04,21.44,19.04h92.25V3.09H24.11z"/>
	</g>
	<path fill="none" stroke="#4B464D" stroke-width="2" stroke-linecap="round" stroke-linejoin="round" stroke-miterlimit="10" d="
		M208.61,3.09H24.11c-11.84,0-21.44,8.53-21.44,19.04v99.43c0,10.51,9.6,19.04,21.44,19.04h184.5c11.84,0,21.44-8.53,21.44-19.04
		V22.13C230.05,11.62,220.45,3.09,208.61,3.09z"/>
	<g>
		<rect x="38.87" y="36.81" fill="#5578B6" width="63.56" height="70.07"/>
		<path fill="#F8CB72" d="M98.25,106.18L81.22,79.98c4.7-2.95,7.79-7.79,7.79-13.29c0-9-8.22-16.3-18.36-16.3
			c-10.13,0-18.36,7.29-18.36,16.3c0,5.5,3.09,10.34,7.79,13.29l-17.04,26.21H98.25z"/>
		<rect x="118.94" y="36.81" fill="#4B464D" width="74.91" height="8.2"/>
		<rect x="118.94" y="98.67" fill="#4B464D" width="74.91" height="8.2"/>
		<rect x="118.94" y="57.34" fill="#4B464D" width="74.91" height="4.1"/>
		<rect x="118.94" y="69.79" fill="#4B464D" width="74.91" height="4.1"/>
		<rect x="118.94" y="82.24" fill="#4B464D" width="74.91" height="4.1"/>
	</g>
</g>
</svg>
